<svg width="20" height="20" viewBox="0 0 20 20" fill="none" xmlns="http://www.w3.org/2000/svg">
<path d="M18.1 11.7999C17.56 11.7999 17.2 12.1599 17.2 12.6999V13.7799C17.2 15.6699 17.11 17.1999 13.6 17.1999H6.4C2.8 17.1999 2.8 15.5799 2.8 13.5999V9.0999C2.53 6.3099 3.88 5.6799 5.5 5.4999H5.59C6.13 5.4999 6.49 5.1399 6.49 4.5999C6.49 4.0599 6.13 3.6999 5.59 3.6999H4.6C2.62 3.6999 1 5.3199 1 7.2999V15.3999C1 17.3799 2.62 18.9999 4.6 18.9999H15.4C17.38 18.9999 19 17.3799 19 15.3999V12.6999C19 12.2499 18.55 11.7999 18.1 11.7999ZM4.15 12.2499C4.15 13.1499 4.33 14.0499 4.6 14.8599C5.59 11.8899 8.38 9.7299 11.62 9.7299V10.8999C11.62 11.3499 11.89 11.7999 12.34 12.0699C12.52 12.1599 12.7 12.2499 12.88 12.2499C13.15 12.2499 13.42 12.1599 13.6 11.9799L18.55 8.1099C18.82 7.8399 19 7.4799 19 7.0299C19 6.6699 18.82 6.2199 18.55 6.0399L13.6 2.1699C13.33 1.9899 13.06 1.8999 12.79 1.8999C12.61 1.8999 12.43 1.8999 12.25 2.0799C11.8 2.2599 11.53 2.7099 11.53 3.2499V4.5099C7.48 4.5099 4.15 7.9299 4.15 12.2499Z" fill="#2678F6"/>
</svg>
